#!OML:ASF H:\Dans Jumps\Project 1\Capture day 1\Session 1\subject.ASF
:FULLY-SPECIFIED
:DEGREES
637
root 0.318781 17.7454 6.59524 7.57422 -1.64189 -1.49815
lowerback -4.01708 0.420535 -0.148244
upperback 1.61138 0.529449 1.07902
thorax 3.90218 0.245241 1.23449
lowerneck -10.0838 -0.421084 -2.19878
upperneck 16.4567 -0.379102 1.03117
head 6.68139 -0.231801 0.661591
rclavicle 1.4064e-014 4.96962e-015
rhumerus -28.0711 -15.2639 -80.3953
rradius 26.5443
rwrist 31.789
rhand -19.5397 -26.1387
rfingers 7.12502
rthumb 6.78416 -56.01
lclavicle 1.4064e-014 4.96962e-015
lhumerus -28.1925 -0.00651493 88.6829
lradius 21.6172
lwrist 8.22832
lhand -25.1416 -5.04437
lfingers 7.12502
lthumb 1.37481 24.9309
rfemur -12.9742 -2.94778 20.4992
rtibia 19.334
rfoot -12.6186 3.28999
rtoes 18.213
lfemur -10.3447 5.96113 -17.3739
ltibia 15.8885
lfoot -8.50399 9.13308
ltoes 3.20761
638
root 0.317959 17.7455 6.59079 7.56726 -1.63004 -1.48796
lowerback -3.99416 0.41136 -0.161622
upperback 1.59695 0.517877 1.08691
thorax 3.87434 0.239215 1.24894
lowerneck -10.066 -0.416514 -2.2104
upperneck 16.3454 -0.371359 1.03343
head 6.64251 -0.228179 0.664645
rclavicle -9.7156e-015 -7.55382e-015
rhumerus -28.0914 -15.2708 -80.3702
rradius 26.5236
rwrist 31.8089
rhand -19.5377 -26.1724
rfingers 7.12502
rthumb 6.78609 -56.0436
lclavicle -9.7156e-015 -7.55382e-015
lhumerus -28.1594 -0.00851816 88.6239
lradius 21.6118
lwrist 8.22826
lhand -25.1452 -5.01081
lfingers 7.12502
lthumb 1.37129 24.9645
rfemur -12.9922 -2.93807 20.4925
rtibia 19.352
rfoot -12.6109 3.26856
rtoes 18.2184
lfemur -10.354 5.96399 -17.3804
ltibia 15.88
lfoot -8.49524 9.10799
ltoes 3.24996
639
root 0.317019 17.7456 6.58643 7.55909 -1.61844 -1.47851
lowerback -3.96746 0.403425 -0.175879
upperback 1.58335 0.507986 1.09556
thorax 3.84519 0.234002 1.26477
lowerneck -10.0458 -0.413938 -2.209
upperneck 16.2289 -0.366138 1.02149
head 6.60161 -0.22613 0.660765
rclavicle 3.15571e-015 1.39149e-015
rhumerus -28.1067 -15.2702 -80.3451
rradius 26.5021
rwrist 31.8247
rhand -19.534 -26.2123
rfingers 7.12502
rthumb 6.78973 -56.0834
lclavicle 3.15571e-015 1.39149e-015
lhumerus -28.123 0.00499023 88.5587
lradius 21.6041
lwrist 8.20847
lhand -25.1872 -5.04625
lfingers 7.12502
lthumb 1.3308 24.9293
rfemur -13.0076 -2.92382 20.4867
rtibia 19.3679
rfoot -12.6021 3.24348
rtoes 18.2312
lfemur -10.3619 5.96806 -17.3855
ltibia 15.8724
lfoot -8.48886 9.08195
ltoes 3.30213
640
root 0.316179 17.7457 6.58214 7.54988 -1.60826 -1.47179
lowerback -3.94231 0.397267 -0.186203
upperback 1.57239 0.500223 1.10402
thorax 3.81964 0.229928 1.27839
lowerneck -10.0271 -0.413297 -2.19511
upperneck 16.1121 -0.363481 0.996873
head 6.56095 -0.225593 0.650546
rclavicle 3.67752e-015 8.94531e-015
rhumerus -28.117 -15.2665 -80.3207
rradius 26.4817
rwrist 31.8398
rhand -19.5355 -26.2386
rfingers 7.12502
rthumb 6.78818 -56.1098
lclavicle 3.67752e-015 8.94531e-015
lhumerus -28.0838 0.0378807 88.4838
lradius 21.6007
lwrist 8.17066
lhand -25.2189 -5.06487
lfingers 7.12502
lthumb 1.30015 24.9109
rfemur -13.0204 -2.91047 20.4832
rtibia 19.3815
rfoot -12.5919 3.22118
rtoes 18.2507
lfemur -10.3687 5.97175 -17.3881
ltibia 15.867
lfoot -8.48693 9.05919
ltoes 3.36889
641
root 0.315483 17.7456 6.57823 7.5386 -1.59899 -1.46978
lowerback -3.92082 0.394523 -0.187554
upperback 1.56531 0.496515 1.11141
thorax 3.80018 0.228068 1.28623
lowerneck -10.003 -0.415078 -2.17795
upperneck 15.9924 -0.364682 0.971418
head 6.51848 -0.226776 0.639204
rclavicle -5.93869e-015 -1.05356e-014
rhumerus -28.1233 -15.2633 -80.2958
rradius 26.463
rwrist 31.8511
rhand -19.5368 -26.2508
rfingers 7.12502
rthumb 6.78701 -56.122
lclavicle -5.93869e-015 -1.05356e-014
lhumerus -28.0369 0.0818416 88.4016
lradius 21.595
lwrist 8.11414
lhand -25.2542 -5.09807
lfingers 7.12502
lthumb 1.26608 24.8779
rfemur -13.0273 -2.90051 20.4839
rtibia 19.3919
rfoot -12.5824 3.20307
rtoes 18.2679
lfemur -10.3722 5.97666 -17.3861
ltibia 15.8641
lfoot -8.47753 9.03816
ltoes 3.37105
642
root 0.31548 17.7456 6.5739 7.53027 -1.58733 -1.46687
lowerback -3.90929 0.388304 -0.184177
upperback 1.56198 0.48789 1.11733
thorax 3.7904 0.22384 1.28968
lowerneck -10.0067 -0.412813 -2.16046
upperneck 15.8988 -0.359916 0.946138
head 6.48912 -0.225097 0.628432
rclavicle -7.40473e-015 9.93923e-016
rhumerus -28.125 -15.2524 -80.2766
rradius 26.4576
rwrist 31.8601
rhand -19.5403 -26.2458
rfingers 7.12502
rthumb 6.78361 -56.1171
lclavicle -7.40473e-015 9.93923e-016
lhumerus -27.9906 0.122456 88.3151
lradius 21.5987
lwrist 8.06887
lhand -25.3089 -5.15034
lfingers 7.12502
lthumb 1.21321 24.826
rfemur -13.0363 -2.90944 20.482
rtibia 19.3985
rfoot -12.5716 3.20235
rtoes 18.2866
lfemur -10.3815 5.97788 -17.3883
ltibia 15.8645
lfoot -8.46591 9.02011
ltoes 3.35891
643
root 0.315742 17.7457 6.56986 7.52289 -1.57614 -1.46765
lowerback -3.89972 0.384395 -0.172629
upperback 1.5557 0.481928 1.12314
thorax 3.77867 0.221154 1.28863
lowerneck -10.0156 -0.403904 -2.14902
upperneck 15.8226 -0.347074 0.932982
head 6.46613 -0.218947 0.623259
rclavicle 3.23025e-016 -8.84592e-015
rhumerus -28.1385 -15.2279 -80.2547
rradius 26.4608
rwrist 31.853
rhand -19.5547 -26.223
rfingers 7.12502
rthumb 6.76969 -56.0948
lclavicle 3.23025e-016 -8.84592e-015
lhumerus -27.9467 0.155368 88.2288
lradius 21.6026
lwrist 8.03788
lhand -25.3707 -5.23037
lfingers 7.12502
lthumb 1.15354 24.7463
rfemur -13.0432 -2.92276 20.4827
rtibia 19.4018
rfoot -12.5603 3.20784
rtoes 18.3156
lfemur -10.3914 5.97786 -17.388
ltibia 15.867
lfoot -8.45706 9.00647
ltoes 3.3458
644
root 0.316152 17.7457 6.56603 7.5158 -1.56574 -1.46945
lowerback -3.89415 0.381509 -0.15778
upperback 1.55178 0.477144 1.12823
thorax 3.77166 0.219114 1.28512
lowerneck -10.0356 -0.393256 -2.14395
upperneck 15.7598 -0.332093 0.928774
head 6.44933 -0.211443 0.6222
rclavicle -2.21148e-015 1.11319e-014
rhumerus -28.1468 -15.2009 -80.2354
rradius 26.4661
rwrist 31.8414
rhand -19.5711 -26.1924
rfingers 7.12502
rthumb 6.75384 -56.0647
lclavicle -2.21148e-015 1.11319e-014
lhumerus -27.8955 0.171444 88.1456
lradius 21.6049
lwrist 8.02919
lhand -25.436 -5.30687
lfingers 7.12502
lthumb 1.09051 24.6701
rfemur -13.0484 -2.93634 20.4837
rtibia 19.4032
rfoot -12.5502 3.21358
rtoes 18.3396
lfemur -10.4011 5.97618 -17.3872
ltibia 15.8708
lfoot -8.44769 8.99621
ltoes 3.32613
645
root 0.316622 17.7458 6.56224 7.50936 -1.55818 -1.47126
lowerback -3.88847 0.37869 -0.143024
upperback 1.54713 0.472454 1.1336
thorax 3.76381 0.217118 1.28195
lowerneck -10.0608 -0.38119 -2.14175
upperneck 15.7066 -0.314955 0.926606
head 6.43648 -0.202931 0.622466
rclavicle -4.17448e-015 -1.74931e-014
rhumerus -28.1524 -15.1694 -80.218
rradius 26.4717
rwrist 31.8289
rhand -19.5917 -26.1676
rfingers 7.12502
rthumb 6.73401 -56.0405
lclavicle -4.17448e-015 -1.74931e-014
lhumerus -27.8422 0.178351 88.0644
lradius 21.6095
lwrist 8.04034
lhand -25.4889 -5.3492
lfingers 7.12502
lthumb 1.03935 24.628
rfemur -13.0541 -2.94767 20.4845
rtibia 19.4038
rfoot -12.5406 3.21933
rtoes 18.361
lfemur -10.4105 5.97341 -17.387
ltibia 15.8738
lfoot -8.42888 8.9894
ltoes 3.26143
646
root 0.317095 17.746 6.55859 7.50339 -1.55427 -1.47359
lowerback -3.88556 0.377075 -0.129216
upperback 1.54327 0.469376 1.13978
thorax 3.7583 0.215878 1.2803
lowerneck -10.0882 -0.370179 -2.13823
upperneck 15.6583 -0.298765 0.920405
head 6.4256 -0.195143 0.621156
rclavicle -1.04859e-014 -5.96354e-015
rhumerus -28.1518 -15.1398 -80.2013
rradius 26.4749
rwrist 31.8198
rhand -19.6089 -26.1526
rfingers 7.12502
rthumb 6.71738 -56.0261
lclavicle -1.04859e-014 -5.96354e-015
lhumerus -27.7831 0.187355 87.9827
lradius 21.6115
lwrist 8.05952
lhand -25.5037 -5.33428
lfingers 7.12502
lthumb 1.02508 24.643
rfemur -13.0609 -2.95335 20.4858
rtibia 19.4054
rfoot -12.5314 3.22103
rtoes 18.3727
lfemur -10.4188 5.97138 -17.3861
ltibia 15.8748
lfoot -8.41307 8.98477
ltoes 3.22276
647
root 0.317588 17.7462 6.55505 7.49759 -1.55344 -1.47289
lowerback -3.88347 0.375894 -0.119814
upperback 1.53828 0.467116 1.14616
thorax 3.75204 0.214942 1.28138
lowerneck -10.1035 -0.363187 -2.13833
upperneck 15.6069 -0.287553 0.91324
head 6.41171 -0.190058 0.619714
rclavicle 1.65488e-014 7.7526e-015
rhumerus -28.1486 -15.1115 -80.1838
rradius 26.4756
rwrist 31.8138
rhand -19.6236 -26.1501
rfingers 7.12502
rthumb 6.7032 -56.024
lclavicle 1.65488e-014 7.7526e-015
lhumerus -27.7299 0.203198 87.9002
lradius 21.6201
lwrist 8.07772
lhand -25.519 -5.33019
lfingers 7.12502
lthumb 1.01029 24.6472
rfemur -13.0695 -2.96065 20.4842
rtibia 19.4089
rfoot -12.523 3.22482
rtoes 18.3691
lfemur -10.4254 5.96996 -17.3888
ltibia 15.8731
lfoot -8.38745 8.98099
ltoes 3.1462
648
root 0.318014 17.7464 6.55147 7.49198 -1.55718 -1.46949
lowerback -3.88073 0.375874 -0.115224
upperback 1.53167 0.466695 1.1523
thorax 3.74364 0.214821 1.28504
lowerneck -10.1037 -0.360164 -2.14204
upperneck 15.5489 -0.281501 0.906154
head 6.39322 -0.187667 0.618446
rclavicle 2.73329e-016 -8.34896e-015
rhumerus -28.1458 -15.0854 -80.1663
rradius 26.4769
rwrist 31.8113
rhand -19.6359 -26.1486
rfingers 7.12502
rthumb 6.69136 -56.0228
lclavicle 2.73329e-016 -8.34896e-015
lhumerus -27.6814 0.229339 87.8148
lradius 21.6309
lwrist 8.08744
lhand -25.5177 -5.28275
lfingers 7.12502
lthumb 1.01155 24.6946
rfemur -13.0799 -2.96246 20.4798
rtibia 19.4135
rfoot -12.5126 3.22636
rtoes 18.3649
lfemur -10.4318 5.97013 -17.3944
ltibia 15.8703
lfoot -8.35614 8.97891
ltoes 3.05593
649
root 0.318422 17.7467 6.54813 7.48524 -1.56295 -1.467
lowerback -3.87965 0.376901 -0.109678
upperback 1.52465 0.467618 1.1584
thorax 3.73575 0.215392 1.28821
lowerneck -10.0863 -0.361832 -2.15036
upperneck 15.4841 -0.281771 0.900913
head 6.3696 -0.188448 0.617987
rclavicle 9.29318e-015 1.41137e-014
rhumerus -28.1407 -15.0689 -80.1474
rradius 26.474
rwrist 31.8174
rhand -19.6439 -26.1477
rfingers 7.12502
rthumb 6.68355 -56.0222
lclavicle 9.29318e-015 1.41137e-014
lhumerus -27.6358 0.270629 87.7247
lradius 21.6425
lwrist 8.08403
lhand -25.5073 -5.24328
lfingers 7.12502
lthumb 1.02164 24.734
rfemur -13.0893 -2.96257 20.4763
rtibia 19.4194
rfoot -12.5027 3.22775
rtoes 18.3631
lfemur -10.4349 5.97205 -17.3986
ltibia 15.8661
lfoot -8.32351 8.97592
ltoes 2.9591
650
root 0.318785 17.7468 6.54492 7.47798 -1.56998 -1.46501
lowerback -3.87824 0.378383 -0.104546
upperback 1.51601 0.469176 1.1649
thorax 3.72597 0.216275 1.29205
lowerneck -10.065 -0.362488 -2.15839
upperneck 15.4202 -0.28076 0.895317
head 6.34557 -0.188625 0.617479
rclavicle 2.5345e-015 8.54774e-015
rhumerus -28.1382 -15.0528 -80.1274
rradius 26.4722
rwrist 31.8214
rhand -19.6486 -26.1455
rfingers 7.12502
rthumb 6.67904 -56.0201
lclavicle 2.5345e-015 8.54774e-015
lhumerus -27.5947 0.317603 87.6344
lradius 21.6506
lwrist 8.07103
lhand -25.5063 -5.23304
lfingers 7.12502
lthumb 1.02255 24.7443
rfemur -13.0975 -2.95908 20.4735
rtibia 19.4249
rfoot -12.4938 3.22657
rtoes 18.3569
lfemur -10.4378 5.97884 -17.4021
ltibia 15.863
lfoot -8.29971 8.9693
ltoes 2.90789
